<svg width="72" height="58" xmlns="http://www.w3.org/2000/svg"><g fill="none" fill-rule="evenodd"><path d="M50.791 5.28l-6.877 7.615c-1.229 1.474-2.578 2.702-4.053 2.702-1.227 0-2.578-.983-2.578-3.563V5.158c0-3.193-1.598-3.93-4.3-3.93-3.636 0-4.4 1.32-4.42 3.948a38.462 38.462 0 00-.07 2.684c0 7.614-.737 9.088-6.386 9.088h-6.263c-3.563 0-5.896-1.597-5.896-4.667V5.65c0-2.825-.983-4.175-2.948-4.175H3.93c-1.843 0-2.702 1.35-2.702 4.175v31.318c0 5.158.615 5.648 5.526 5.648 2.089 0 3.194-1.35 3.194-4.175v-9.457c0-2.703 1.964-4.667 4.666-4.667h7.246c2.948 0 6.633.245 6.633 5.158v8.966c0 2.824.983 4.175 2.948 4.175h2.58c1.207 0 2.085-.455 2.611-1.384.436-.666.65-1.605.65-2.915v-4.42c0-3.56 4.175-8.844 7.247-8.844 2.086 0 3.56 2.335 6.385 6.878l5.035 8.106c1.474 2.212 3.07 2.58 5.895 2.58 4.544 0 4.053-1.72 2.58-4.422L53.737 20.386c-.245-.368-1.104-1.595-1.104-3.193 0-1.227.49-2.579 2.333-4.545L61.72 5.65c1.844-2.088 1.967-2.702 1.967-3.069 0-1.23-1.843-1.353-4.054-1.353-5.404 0-5.77.615-8.842 4.053" fill="#000"/><path d="M50.791 5.28l-6.877 7.615c-1.229 1.474-2.578 2.702-4.053 2.702-1.227 0-2.578-.983-2.578-3.563V5.158c0-3.193-1.598-3.93-4.3-3.93-3.636 0-4.4 1.32-4.42 3.948a38.462 38.462 0 00-.07 2.684c0 7.614-.737 9.088-6.386 9.088h-6.263c-3.563 0-5.896-1.597-5.896-4.667V5.65c0-2.825-.983-4.175-2.948-4.175H3.93c-1.843 0-2.702 1.35-2.702 4.175v31.318c0 5.158.615 5.648 5.526 5.648 2.089 0 3.194-1.35 3.194-4.175v-9.457c0-2.703 1.964-4.667 4.666-4.667h7.246c2.948 0 6.633.245 6.633 5.158v8.966c0 2.824.983 4.175 2.948 4.175h2.58c1.207 0 2.085-.455 2.611-1.384.436-.666.65-1.605.65-2.915v-4.42c0-3.56 4.175-8.844 7.247-8.844 2.086 0 3.56 2.335 6.385 6.878l5.035 8.106c1.474 2.212 3.07 2.58 5.895 2.58 4.544 0 4.053-1.72 2.58-4.422L53.737 20.386c-.245-.368-1.104-1.595-1.104-3.193 0-1.227.49-2.579 2.333-4.545L61.72 5.65c1.844-2.088 1.967-2.702 1.967-3.069 0-1.23-1.843-1.353-4.054-1.353-5.404 0-5.77.615-8.842 4.053z" stroke="#F18E03" stroke-width="2.456"/><path d="M50.791 5.28l-6.877 7.615c-1.229 1.474-2.578 2.702-4.053 2.702-1.227 0-2.578-.983-2.578-3.563V5.158c0-3.193-1.598-3.93-4.3-3.93-3.636 0-4.4 1.32-4.42 3.948a38.462 38.462 0 00-.07 2.684c0 7.614-.737 9.088-6.386 9.088h-6.263c-3.563 0-5.896-1.597-5.896-4.667V5.65c0-2.825-.983-4.175-2.948-4.175H3.93c-1.843 0-2.702 1.35-2.702 4.175v31.318c0 5.158.615 5.648 5.526 5.648 2.089 0 3.194-1.35 3.194-4.175v-9.457c0-2.703 1.964-4.667 4.666-4.667h7.246c2.948 0 6.633.245 6.633 5.158v8.966c0 2.824.983 4.175 2.948 4.175h2.58c1.207 0 2.085-.455 2.611-1.384.436-.666.65-1.605.65-2.915v-4.42c0-3.56 4.175-8.844 7.247-8.844 2.086 0 3.56 2.335 6.385 6.878l5.035 8.106c1.474 2.212 3.07 2.58 5.895 2.58 4.544 0 4.053-1.72 2.58-4.422L53.737 20.386c-.245-.368-1.104-1.595-1.104-3.193 0-1.227.49-2.579 2.333-4.545L61.72 5.65c1.844-2.088 1.967-2.702 1.967-3.069 0-1.23-1.843-1.353-4.054-1.353-5.404 0-5.77.615-8.842 4.053" fill="#000"/><path d="M50.791 5.28l-6.877 7.615c-1.229 1.474-2.578 2.702-4.053 2.702-1.227 0-2.578-.983-2.578-3.563V5.158c0-3.193-1.598-3.93-4.3-3.93-3.636 0-4.4 1.32-4.42 3.948a38.462 38.462 0 00-.07 2.684c0 7.614-.737 9.088-6.386 9.088h-6.263c-3.563 0-5.896-1.597-5.896-4.667V5.65c0-2.825-.983-4.175-2.948-4.175H3.93c-1.843 0-2.702 1.35-2.702 4.175v31.318c0 5.158.615 5.648 5.526 5.648 2.089 0 3.194-1.35 3.194-4.175v-9.457c0-2.703 1.964-4.667 4.666-4.667h7.246c2.948 0 6.633.245 6.633 5.158v8.966c0 2.824.983 4.175 2.948 4.175h2.58c1.207 0 2.085-.455 2.611-1.384.436-.666.65-1.605.65-2.915v-4.42c0-3.56 4.175-8.844 7.247-8.844 2.086 0 3.56 2.335 6.385 6.878l5.035 8.106c1.474 2.212 3.07 2.58 5.895 2.58 4.544 0 4.053-1.72 2.58-4.422L53.737 20.386c-.245-.368-1.104-1.595-1.104-3.193 0-1.227.49-2.579 2.333-4.545L61.72 5.65c1.844-2.088 1.967-2.702 1.967-3.069 0-1.23-1.843-1.353-4.054-1.353-5.404 0-5.77.615-8.842 4.053z" stroke="#FFF" stroke-width="1.228"/><path d="M56.614 56.567H37.193c0-6.17 6.006-7.868 13.458-7.868h19.428c0 6.172-6.014 7.868-13.465 7.868" fill="#000"/><path d="M56.614 56.567H37.193c0-6.17 6.006-7.868 13.458-7.868h19.428c0 6.172-6.014 7.868-13.465 7.868z" stroke="#F18E03" stroke-width="2.456"/><path d="M56.614 56.567H37.193c0-6.17 6.007-7.869 13.458-7.869H70.08c0 6.173-6.015 7.87-13.466 7.87" fill="#000"/><path d="M56.614 56.567H37.193c0-6.17 6.007-7.869 13.458-7.869H70.08c0 6.173-6.015 7.87-13.466 7.87z" stroke="#FFF" stroke-width="1.228"/></g></svg>