<?xml version="1.0" standalone="no"?>
<!DOCTYPE svg PUBLIC "-//W3C//DTD SVG 20010904//EN"
 "http://www.w3.org/TR/2001/REC-SVG-20010904/DTD/svg10.dtd">
<svg version="1.0" xmlns="http://www.w3.org/2000/svg"
 width="700.000000pt" height="700.000000pt" viewBox="0 0 700.000000 700.000000"
 preserveAspectRatio="xMidYMid meet">
<metadata>
Created by potrace 1.14, written by Peter Selinger 2001-2017
</metadata>
<g transform="translate(0.000000,700.000000) scale(0.100000,-0.100000)"
fill="#000000" stroke="none">
<path d="M3087 6180 c-32 -5 -79 -19 -105 -30 -116 -52 -141 -111 -153 -375
-4 -104 -8 -258 -9 -341 -1 -449 -73 -657 -256 -741 -118 -54 -158 -57 -684
-58 -427 0 -494 2 -560 17 -242 57 -387 206 -410 423 -5 50 -10 255 -10 457 0
441 -8 496 -87 570 -55 53 -83 58 -318 58 -246 0 -273 -7 -321 -79 -63 -96
-59 33 -62 -1826 -2 -1104 1 -1726 8 -1793 16 -163 51 -225 149 -263 48 -19
83 -23 239 -27 153 -4 190 -2 226 12 68 26 119 84 149 170 7 20 13 246 18 621
4 389 10 604 18 632 43 163 160 287 321 345 63 22 75 23 500 26 575 4 700 -7
848 -80 72 -36 147 -112 181 -182 48 -103 51 -138 51 -671 0 -275 5 -542 10
-594 16 -146 63 -231 149 -267 25 -10 84 -14 235 -14 201 0 203 0 257 28 58
29 108 91 130 160 8 23 15 166 19 382 7 310 10 352 29 419 83 286 330 592 566
702 58 28 85 34 158 37 82 4 91 3 151 -27 138 -68 244 -212 751 -1026 323
-518 365 -573 469 -621 98 -45 182 -56 376 -51 193 5 239 14 283 59 27 27 29
33 24 81 -4 30 -25 89 -50 142 -24 49 -295 506 -602 1015 -308 509 -569 950
-582 980 -76 189 -40 375 111 564 31 38 219 238 418 444 360 372 478 504 511
574 52 110 -11 145 -278 155 -179 6 -404 -9 -486 -33 -87 -26 -164 -72 -237
-143 -37 -36 -261 -280 -497 -541 -236 -261 -462 -507 -503 -547 -102 -99
-192 -145 -292 -151 -63 -4 -85 0 -128 18 -66 28 -124 93 -153 169 -31 84 -38
197 -39 612 0 431 -3 452 -73 526 -60 62 -129 84 -282 89 -66 1 -146 -1 -178
-6z"/>
<path d="M4760 1483 c-544 -38 -850 -165 -993 -413 -33 -58 -66 -171 -70 -235
l-2 -50 910 -3 c927 -3 1261 5 1463 33 307 43 526 136 661 280 90 96 135 197
156 348 l6 47 -1043 -2 c-574 -1 -1063 -3 -1088 -5z"/>
</g>
</svg>
